<mxfile host="app.diagrams.net" modified="2022-12-28T08:54:01.017Z" agent="5.0 (Windows NT 10.0; Win64; x64) AppleWebKit/537.36 (KHTML, like Gecko) Chrome/108.0.0.0 Safari/537.36" version="20.7.4" etag="XgHRmyawnRWMizN71h0r" type="github">
  <diagram id="YnohDv1XX-XILwFOYH0h" name="第 1 页">
    <mxGraphModel dx="1434" dy="708" grid="1" gridSize="10" guides="1" tooltips="1" connect="1" arrows="1" fold="1" page="1" pageScale="1" pageWidth="827" pageHeight="1169" background="#ffffff" math="0" shadow="0">
      <root>
        <mxCell id="0" />
        <mxCell id="1" parent="0" />
        <mxCell id="0v9XJlZPrVluAhaS6zxg-3" style="edgeStyle=orthogonalEdgeStyle;rounded=0;orthogonalLoop=1;jettySize=auto;html=1;exitX=1;exitY=0.5;exitDx=0;exitDy=0;entryX=0;entryY=0.5;entryDx=0;entryDy=0;fontSize=16;" edge="1" parent="1" source="0v9XJlZPrVluAhaS6zxg-1" target="0v9XJlZPrVluAhaS6zxg-2">
          <mxGeometry relative="1" as="geometry" />
        </mxCell>
        <mxCell id="0v9XJlZPrVluAhaS6zxg-1" value="&lt;font style=&quot;font-size: 16px;&quot;&gt;厂家名&lt;/font&gt;" style="rounded=0;whiteSpace=wrap;html=1;fillColor=#dae8fc;strokeColor=#6c8ebf;" vertex="1" parent="1">
          <mxGeometry x="50" y="80" width="100" height="50" as="geometry" />
        </mxCell>
        <mxCell id="0v9XJlZPrVluAhaS6zxg-7" style="edgeStyle=orthogonalEdgeStyle;rounded=0;orthogonalLoop=1;jettySize=auto;html=1;exitX=1;exitY=0.5;exitDx=0;exitDy=0;entryX=0;entryY=0.5;entryDx=0;entryDy=0;fontSize=16;" edge="1" parent="1" source="0v9XJlZPrVluAhaS6zxg-2" target="0v9XJlZPrVluAhaS6zxg-4">
          <mxGeometry relative="1" as="geometry" />
        </mxCell>
        <mxCell id="0v9XJlZPrVluAhaS6zxg-2" value="查询" style="rhombus;whiteSpace=wrap;html=1;fontSize=16;" vertex="1" parent="1">
          <mxGeometry x="190" y="80" width="110" height="50" as="geometry" />
        </mxCell>
        <mxCell id="0v9XJlZPrVluAhaS6zxg-4" value="厂家名，厂家id" style="rounded=1;whiteSpace=wrap;html=1;fontSize=16;fillColor=#f5f5f5;strokeColor=#666666;fontColor=#333333;" vertex="1" parent="1">
          <mxGeometry x="330" y="80" width="120" height="50" as="geometry" />
        </mxCell>
        <mxCell id="0v9XJlZPrVluAhaS6zxg-8" style="edgeStyle=orthogonalEdgeStyle;rounded=0;orthogonalLoop=1;jettySize=auto;html=1;exitX=1;exitY=0.5;exitDx=0;exitDy=0;entryX=0;entryY=0.5;entryDx=0;entryDy=0;fontSize=16;" edge="1" parent="1" source="0v9XJlZPrVluAhaS6zxg-9" target="0v9XJlZPrVluAhaS6zxg-11">
          <mxGeometry relative="1" as="geometry" />
        </mxCell>
        <mxCell id="0v9XJlZPrVluAhaS6zxg-9" value="&lt;font style=&quot;font-size: 16px;&quot;&gt;厂家id&lt;/font&gt;" style="rounded=0;whiteSpace=wrap;html=1;fillColor=#dae8fc;strokeColor=#6c8ebf;" vertex="1" parent="1">
          <mxGeometry x="50" y="170" width="100" height="50" as="geometry" />
        </mxCell>
        <mxCell id="0v9XJlZPrVluAhaS6zxg-10" style="edgeStyle=orthogonalEdgeStyle;rounded=0;orthogonalLoop=1;jettySize=auto;html=1;exitX=1;exitY=0.5;exitDx=0;exitDy=0;entryX=0;entryY=0.5;entryDx=0;entryDy=0;fontSize=16;" edge="1" parent="1" source="0v9XJlZPrVluAhaS6zxg-11" target="0v9XJlZPrVluAhaS6zxg-12">
          <mxGeometry relative="1" as="geometry" />
        </mxCell>
        <mxCell id="0v9XJlZPrVluAhaS6zxg-11" value="查询" style="rhombus;whiteSpace=wrap;html=1;fontSize=16;" vertex="1" parent="1">
          <mxGeometry x="190" y="170" width="110" height="50" as="geometry" />
        </mxCell>
        <mxCell id="0v9XJlZPrVluAhaS6zxg-12" value="型号id，型号" style="rounded=1;whiteSpace=wrap;html=1;fontSize=16;fillColor=#f5f5f5;fontColor=#333333;strokeColor=#666666;" vertex="1" parent="1">
          <mxGeometry x="330" y="170" width="120" height="50" as="geometry" />
        </mxCell>
      </root>
    </mxGraphModel>
  </diagram>
</mxfile>
